<svg width="1740" height="154" viewBox="0 0 1740 154" fill="none" xmlns="http://www.w3.org/2000/svg">
<path fill-rule="evenodd" clip-rule="evenodd" d="M571.214 148.19H625.354L642.354 67.98H642.764L685.874 148.19H747.874L778.354 5H724.214L707.364 84.42H706.764L666.264 5H601.694L571.214 148.19ZM828.704 79.8C834.324 66 845.544 60.56 863.004 60.56C880.244 60.56 890.074 67.98 888.464 79.8H828.704ZM877.624 115.3C870.814 122.12 862.624 124.92 849.554 124.92C827.554 124.92 821.684 112.92 823.494 105.07H933.774C946.204 50.33 913.924 34.07 865.394 34.07C816.064 34.07 782.584 55.33 774.564 93.22C766.144 133.32 792.004 152.57 844.744 152.57C867.804 152.57 885.854 148.96 900.084 142.57C914.314 136.18 924.754 126.73 931.004 115.3H877.624ZM945.004 69.78H968.264L958.644 114.9C952.424 144.77 962.644 150.59 993.134 150.59C1005.54 150.616 1017.93 149.814 1030.22 148.19L1036.44 118.91C1031.62 119.11 1027.02 119.31 1023.01 119.31C1012.18 119.31 1008.01 118.71 1010.17 108.48L1018.4 69.78H1045.46L1052.08 38.5H1025L1032.62 3.21H982.524L974.904 38.5H951.644L945.004 69.78ZM1066.74 148.19H1125.09L1158.58 90.84L1167.58 148.19H1226L1286.53 38.5H1233L1199.52 103.27H1199.12L1190.89 38.5H1148.38L1110.89 103.27H1110.49L1106.28 38.5H1052.74L1066.74 148.19ZM1328.64 93.24C1332.45 76 1343.08 66.57 1363.13 66.57C1383.38 66.57 1389.8 76 1385.99 93.24C1382.38 110.89 1371.99 120.11 1351.7 120.11C1331.7 120.11 1325.03 110.89 1328.64 93.24ZM1276.11 93.24C1267.49 133.75 1288.11 152.59 1344.68 152.59C1401.25 152.59 1429.9 133.75 1438.53 93.24C1447.15 52.94 1426.53 34.09 1369.95 34.09C1313.37 34.09 1284.73 52.94 1276.11 93.24ZM1440.11 148.24H1490.23L1499.06 107.13C1504.06 83.46 1524.33 77.65 1542.17 77.65C1550.99 77.65 1558.01 79.46 1566.43 81.65L1575.86 36.74C1570.48 35.932 1565.05 35.5275 1559.61 35.53C1542.37 35.53 1524.52 42.53 1507.88 59.6H1507.48L1512 38.5H1463.48L1440.22 148.19L1440.11 148.24ZM1561.64 148.24H1611.77L1616.99 124.17L1635.23 111.34L1653.48 148.24H1721.26L1681 79.41L1739.55 38.5H1673L1627.69 74L1643.33 0H1593.19L1561.71 148.19L1561.64 148.24Z" fill="black"/>
<path fill-rule="evenodd" clip-rule="evenodd" d="M127.234 92.44C119.004 109.68 106.774 117.1 88.9337 117.1C68.2737 117.1 56.4437 105.67 62.6637 76.6C68.8837 47.53 85.9237 36.09 109.004 36.09C130.864 36.09 134.474 50.93 133.864 61.16H192.294C190.527 66.2073 189.094 71.365 188.004 76.6C187.134 80.5365 186.466 84.5151 186.004 88.52L202.904 92.44H127.234ZM383.564 5H512.234C560.764 5 582.424 23.86 571.234 76.59C560.604 126.92 530.524 148.18 483.004 148.18H371.674L394.304 41.92L448.394 53.63L435.844 112.09H468.324C494.194 112.09 507.424 99.26 512.234 76.6C517.044 53.94 509.434 41.11 483.564 41.11H384.754C386.824 50.59 386.754 62.25 383.654 76.6C367.814 150.79 303.844 153.2 269.564 153.2C240.174 153.2 189.564 151.42 185.694 104.2C178.874 117.68 170.214 128.79 157.504 136.94C141.504 147.37 118.604 153.19 84.1137 153.19C49.8237 153.19 -13.3363 150.78 2.50369 76.59C18.3437 2.39999 82.3137 0 116.604 0C148.004 0 194.124 3.74 197.674 48.59C221.774 1.77 272.744 0 302.004 0C324.004 0 357.794 1 375.094 21.2L383.564 5ZM248.104 76.6C251.574 60.4 258.394 49.68 267.744 43.36L234.194 36.09H301.794V36.54C320.004 38.89 329.004 50.8 323.504 76.6C317.284 105.67 300.234 117.1 277.184 117.1C254.134 117.1 241.884 105.67 248.104 76.6Z" fill="#F99A1A"/>
</svg>
